<?xml version="1.0" encoding="UTF-8" standalone="no"?>
<!DOCTYPE svg PUBLIC "-//W3C//DTD SVG 1.1//EN" "http://www.w3.org/Graphics/SVG/1.1/DTD/svg11.dtd">
<svg width="100%" height="100%" viewBox="0 0 1001 1001" version="1.1" xmlns="http://www.w3.org/2000/svg" xmlns:xlink="http://www.w3.org/1999/xlink" xml:space="preserve" xmlns:serif="http://www.serif.com/" style="fill-rule:evenodd;clip-rule:evenodd;stroke-linecap:round;stroke-linejoin:round;stroke-miterlimit:1.5;">
    <g transform="matrix(1,0,0,1,-15985,-8561)">
        <g id="eam" transform="matrix(1,0,0,1,11153.2,8561.53)">
            <rect x="4832.33" y="0" width="1000" height="1000" style="fill:none;"/>
            <g transform="matrix(1.88481,0,0,1.88481,-4718.09,-722.13)">
                <g transform="matrix(1,0,0,1,4138.68,240.276)">
                    <g transform="matrix(0.507443,-0.861685,0.861685,0.507443,200.732,1037.1)">
                        <text x="1007.52px" y="342.969px" style="font-family:'DMSerifDisplay-Regular', 'DM Serif Display';font-size:60px;fill:rgb(211,167,83);">E</text>
                    </g>
                    <g transform="matrix(0.655521,-0.755177,0.755177,0.655521,112.455,881.153)">
                        <text x="1022.07px" y="317.313px" style="font-family:'DMSerifDisplay-Regular', 'DM Serif Display';font-size:60px;fill:rgb(211,167,83);">V</text>
                    </g>
                    <g transform="matrix(0.775955,-0.630788,0.630788,0.775955,50.4105,724.252)">
                        <text x="1044.76px" y="291.162px" style="font-family:'DMSerifDisplay-Regular', 'DM Serif Display';font-size:60px;fill:rgb(211,167,83);">E</text>
                    </g>
                    <g transform="matrix(0.86829,-0.496056,0.496056,0.86829,5.74793,565.472)">
                        <text x="1067.74px" y="271.912px" style="font-family:'DMSerifDisplay-Regular', 'DM Serif Display';font-size:60px;fill:rgb(211,167,83);">R</text>
                    </g>
                    <g transform="matrix(0.95214,-0.305661,0.305661,0.95214,-23.6486,350.15)">
                        <text x="1106.31px" y="250.592px" style="font-family:'DMSerifDisplay-Regular', 'DM Serif Display';font-size:60px;fill:rgb(211,167,83);">A</text>
                    </g>
                    <g transform="matrix(0.986301,-0.164954,0.164954,0.986301,-23.9352,191.339)">
                        <text x="1140.04px" y="239.778px" style="font-family:'DMSerifDisplay-Regular', 'DM Serif Display';font-size:60px;fill:rgb(211,167,83);">F</text>
                    </g>
                    <g transform="matrix(0.999707,-0.0241888,0.0241888,0.999707,-5.331,28.3513)">
                        <text x="1169.25px" y="234.535px" style="font-family:'DMSerifDisplay-Regular', 'DM Serif Display';font-size:60px;fill:rgb(211,167,83);">T</text>
                    </g>
                    <g transform="matrix(0.993513,0.113721,-0.113721,0.993513,34.3759,-135.347)">
                        <text x="1203.49px" y="233.628px" style="font-family:'DMSerifDisplay-Regular', 'DM Serif Display';font-size:60px;fill:rgb(211,167,83);">E</text>
                    </g>
                    <g transform="matrix(0.966512,0.256621,-0.256621,0.966512,102.018,-308.563)">
                        <text x="1233.29px" y="236.604px" style="font-family:'DMSerifDisplay-Regular', 'DM Serif Display';font-size:60px;fill:rgb(211,167,83);">R</text>
                    </g>
                    <g transform="matrix(0.884226,0.467059,-0.467059,0.884226,263.578,-567.247)">
                        <text x="1275.99px" y="248.044px" style="font-family:'DMSerifDisplay-Regular', 'DM Serif Display';font-size:60px;fill:rgb(211,167,83);">M</text>
                    </g>
                    <g transform="matrix(0.775955,0.630788,-0.630788,0.775955,463.546,-768.905)">
                        <text x="1314.18px" y="268.094px" style="font-family:'DMSerifDisplay-Regular', 'DM Serif Display';font-size:60px;fill:rgb(211,167,83);">O</text>
                    </g>
                    <g transform="matrix(0.64439,0.764697,-0.764697,0.64439,699.494,-923.161)">
                        <text x="1342.32px" y="290.509px" style="font-family:'DMSerifDisplay-Regular', 'DM Serif Display';font-size:60px;fill:rgb(211,167,83);">R</text>
                    </g>
                    <g transform="matrix(0.493973,0.869477,-0.869477,0.493973,965.877,-1026.22)">
                        <text x="1364.59px" y="316.693px" style="font-family:'DMSerifDisplay-Regular', 'DM Serif Display';font-size:60px;fill:rgb(211,167,83);">E</text>
                    </g>
                </g>
                <g transform="matrix(1,0,0,1,4278.13,65.267)">
                    <path d="M1054.9,466.233C1050.22,500.354 1030.63,520.259 995.133,525C1030.76,529.45 1049.5,549.736 1054.26,583.144C1057.2,549.735 1076.56,530.091 1113.27,525C1077.99,520.012 1057.11,501.734 1054.9,466.233Z" style="fill:none;stroke:rgb(211,167,83);stroke-width:2.21px;"/>
                </g>
                <g transform="matrix(1,0,0,1,4188.23,-52.1619)">
                    <path d="M1063.55,868.906C1068.09,791.886 1004.48,822.603 997.84,686.35C997.829,686.139 997.955,685.945 998.153,685.869C1003.14,684.013 1009.58,700.936 1016.9,729.253C1013.21,709.143 1012.15,689.504 1016.92,670.913C1016.98,670.711 1017.15,670.564 1017.36,670.548C1017.57,670.531 1017.76,670.648 1017.85,670.839C1026.51,690.849 1030.57,716.776 1033.4,740.332C1031.79,718.611 1024.06,696.19 1029.03,682.097C1029.08,681.961 1029.19,681.855 1029.32,681.805C1029.46,681.756 1029.61,681.769 1029.73,681.841C1037.63,687.283 1040.67,719.067 1044.43,749.448C1042.18,732.836 1040.19,719.374 1039.81,705.975C1039.81,705.751 1039.95,705.552 1040.17,705.491C1040.38,705.429 1040.61,705.52 1040.72,705.713C1051.12,723.545 1057.73,745.358 1064.03,767.512" style="fill:none;stroke:rgb(211,167,83);stroke-width:2.21px;"/>
                </g>
                <g transform="matrix(1,0,0,1,4188.23,-52.1619)">
                    <path d="M1047.06,783.638C1047.06,783.638 1016.85,740.317 1012.05,733.439C1011.87,733.175 1011.81,732.847 1011.88,732.534C1011.95,732.22 1012.15,731.952 1012.43,731.794C1016.67,729.574 1023.28,733.21 1031.75,739.875C1045.83,750.96 1065.01,770.424 1086.75,785.132C1106.5,798.492 1114.58,839.741 1111.56,868.906" style="fill:none;stroke:rgb(211,167,83);stroke-width:2.21px;"/>
                </g>
                <g transform="matrix(1,0,0,1,4189.23,-51.1619)">
                    <circle cx="1003.23" cy="778.481" r="1.732" style="fill:none;stroke:rgb(211,167,83);stroke-width:1.11px;"/>
                </g>
                <g transform="matrix(1.38789,0,0,1.38789,3794.88,-296.663)">
                    <circle cx="1003.23" cy="778.481" r="1.732" style="fill:none;stroke:rgb(211,167,83);stroke-width:0.8px;"/>
                </g>
                <g transform="matrix(1,0,0,1,4229.27,2.89935)">
                    <circle cx="1003.23" cy="778.481" r="1.732" style="fill:rgb(211,167,83);"/>
                </g>
                <g transform="matrix(1,0,0,1,4188.23,-52.1619)">
                    <path d="M1016.11,802.312L1016.11,815.676" style="fill:none;stroke:rgb(211,167,83);stroke-width:1.11px;"/>
                </g>
                <g transform="matrix(1,0,0,1,4188.23,-52.1619)">
                    <path d="M1022.94,808.994L1009.3,808.994" style="fill:none;stroke:rgb(211,167,83);stroke-width:1.11px;"/>
                </g>
                <g transform="matrix(1,0,0,1,4188.23,-52.1619)">
                    <path d="M1019.69,805.058L1012.21,812.839" style="fill:none;stroke:rgb(211,167,83);stroke-width:1.11px;"/>
                </g>
                <g transform="matrix(1,0,0,1,4188.23,-52.1619)">
                    <path d="M1012.21,805.058L1019.69,812.839" style="fill:none;stroke:rgb(211,167,83);stroke-width:1.11px;"/>
                </g>
                <g transform="matrix(1,0,0,1,4188.23,-52.1619)">
                    <path d="M1032.68,846.069C1032.12,852.344 1028.58,855.342 1023,856.098C1028.62,856.833 1031.81,860.238 1032.99,865.853C1033.56,859.821 1036.74,856.711 1042.54,856.524C1035.09,854.118 1032.68,850.405 1032.68,846.069Z" style="fill:none;stroke:rgb(211,167,83);stroke-width:1.11px;"/>
                </g>
                <g transform="matrix(-1,0,0,1,6473.75,-52.1619)">
                    <path d="M1063.55,868.906C1068.09,791.886 1004.48,822.603 997.84,686.35C997.829,686.139 997.955,685.945 998.153,685.869C1003.14,684.013 1009.58,700.936 1016.9,729.253C1013.21,709.143 1012.15,689.504 1016.92,670.913C1016.98,670.711 1017.15,670.564 1017.36,670.548C1017.57,670.531 1017.76,670.648 1017.85,670.839C1026.51,690.849 1030.57,716.776 1033.4,740.332C1031.79,718.611 1024.06,696.19 1029.03,682.097C1029.08,681.961 1029.19,681.855 1029.32,681.805C1029.46,681.756 1029.61,681.769 1029.73,681.841C1037.63,687.283 1040.67,719.067 1044.43,749.448C1042.18,732.836 1040.19,719.374 1039.81,705.975C1039.81,705.751 1039.95,705.552 1040.17,705.491C1040.38,705.429 1040.61,705.52 1040.72,705.713C1051.12,723.545 1057.73,745.358 1064.03,767.512" style="fill:none;stroke:rgb(211,167,83);stroke-width:2.21px;"/>
                </g>
                <g transform="matrix(-1,0,0,1,6473.75,-52.1619)">
                    <path d="M1047.06,783.638C1047.06,783.638 1016.85,740.317 1012.05,733.439C1011.87,733.175 1011.81,732.847 1011.88,732.534C1011.95,732.22 1012.15,731.952 1012.43,731.794C1016.67,729.574 1023.28,733.21 1031.75,739.875C1045.83,750.96 1065.01,770.424 1086.75,785.132C1106.5,798.492 1114.58,839.741 1111.56,868.906" style="fill:none;stroke:rgb(211,167,83);stroke-width:2.21px;"/>
                </g>
                <g transform="matrix(-1,0,0,1,6472.75,-51.1619)">
                    <circle cx="1003.23" cy="778.481" r="1.732" style="fill:none;stroke:rgb(211,167,83);stroke-width:1.11px;"/>
                </g>
                <g transform="matrix(-1.38789,0,0,1.38789,6867.11,-296.663)">
                    <circle cx="1003.23" cy="778.481" r="1.732" style="fill:none;stroke:rgb(211,167,83);stroke-width:0.8px;"/>
                </g>
                <g transform="matrix(-1,0,0,1,6432.72,2.89935)">
                    <circle cx="1003.23" cy="778.481" r="1.732" style="fill:rgb(211,167,83);"/>
                </g>
                <g transform="matrix(-1,0,0,1,6473.75,-52.1619)">
                    <path d="M1016.11,802.312L1016.11,815.676" style="fill:none;stroke:rgb(211,167,83);stroke-width:1.11px;"/>
                </g>
                <g transform="matrix(-1,0,0,1,6473.75,-52.1619)">
                    <path d="M1022.94,808.994L1009.3,808.994" style="fill:none;stroke:rgb(211,167,83);stroke-width:1.11px;"/>
                </g>
                <g transform="matrix(-1,0,0,1,6473.75,-52.1619)">
                    <path d="M1019.69,805.058L1012.21,812.839" style="fill:none;stroke:rgb(211,167,83);stroke-width:1.11px;"/>
                </g>
                <g transform="matrix(-1,0,0,1,6473.75,-52.1619)">
                    <path d="M1012.21,805.058L1019.69,812.839" style="fill:none;stroke:rgb(211,167,83);stroke-width:1.11px;"/>
                </g>
                <g transform="matrix(-1,0,0,1,6473.75,-52.1619)">
                    <path d="M1032.68,846.069C1032.12,852.344 1028.58,855.342 1023,856.098C1028.62,856.833 1031.81,860.238 1032.99,865.853C1033.56,859.821 1036.74,856.711 1042.54,856.524C1035.09,854.118 1032.68,850.405 1032.68,846.069Z" style="fill:none;stroke:rgb(211,167,83);stroke-width:1.11px;"/>
                </g>
            </g>
        </g>
    </g>
</svg>
