<?xml version="1.0" encoding="UTF-8" standalone="no"?>
<!DOCTYPE svg PUBLIC "-//W3C//DTD SVG 1.1//EN" "http://www.w3.org/Graphics/SVG/1.1/DTD/svg11.dtd">
<svg width="100%" height="100%" viewBox="0 0 520 758" version="1.1" xmlns="http://www.w3.org/2000/svg" xmlns:xlink="http://www.w3.org/1999/xlink" xml:space="preserve" xmlns:serif="http://www.serif.com/" style="fill-rule:evenodd;clip-rule:evenodd;stroke-linecap:round;stroke-linejoin:round;stroke-miterlimit:1.5;">
    <g transform="matrix(1,0,0,1,-115,-4206)">
        <g id="logo" transform="matrix(0.691021,0,0,0.720589,-546.362,4206.85)">
            <rect x="958.333" y="0" width="750" height="1050" style="fill:none;"/>
            <g transform="matrix(1.44713,0,0,1.38775,-596.178,-238.554)">
                <g transform="matrix(1,0,0,1,139.677,-0.548224)">
                    <g transform="matrix(0.507443,-0.861685,0.861685,0.507443,200.732,1037.1)">
                        <text x="1007.52px" y="342.969px" style="font-family:'DMSerifDisplay-Regular', 'DM Serif Display';font-size:60px;fill:rgb(211,167,83);">E</text>
                    </g>
                    <g transform="matrix(0.655521,-0.755177,0.755177,0.655521,112.455,881.153)">
                        <text x="1022.07px" y="317.313px" style="font-family:'DMSerifDisplay-Regular', 'DM Serif Display';font-size:60px;fill:rgb(211,167,83);">V</text>
                    </g>
                    <g transform="matrix(0.775955,-0.630788,0.630788,0.775955,50.4105,724.252)">
                        <text x="1044.76px" y="291.162px" style="font-family:'DMSerifDisplay-Regular', 'DM Serif Display';font-size:60px;fill:rgb(211,167,83);">E</text>
                    </g>
                    <g transform="matrix(0.86829,-0.496056,0.496056,0.86829,5.74793,565.472)">
                        <text x="1067.74px" y="271.912px" style="font-family:'DMSerifDisplay-Regular', 'DM Serif Display';font-size:60px;fill:rgb(211,167,83);">R</text>
                    </g>
                    <g transform="matrix(0.95214,-0.305661,0.305661,0.95214,-23.6486,350.15)">
                        <text x="1106.31px" y="250.592px" style="font-family:'DMSerifDisplay-Regular', 'DM Serif Display';font-size:60px;fill:rgb(211,167,83);">A</text>
                    </g>
                    <g transform="matrix(0.986301,-0.164954,0.164954,0.986301,-23.9352,191.339)">
                        <text x="1140.04px" y="239.778px" style="font-family:'DMSerifDisplay-Regular', 'DM Serif Display';font-size:60px;fill:rgb(211,167,83);">F</text>
                    </g>
                    <g transform="matrix(0.999707,-0.0241888,0.0241888,0.999707,-5.331,28.3513)">
                        <text x="1169.25px" y="234.535px" style="font-family:'DMSerifDisplay-Regular', 'DM Serif Display';font-size:60px;fill:rgb(211,167,83);">T</text>
                    </g>
                    <g transform="matrix(0.993513,0.113721,-0.113721,0.993513,34.3759,-135.347)">
                        <text x="1203.49px" y="233.628px" style="font-family:'DMSerifDisplay-Regular', 'DM Serif Display';font-size:60px;fill:rgb(211,167,83);">E</text>
                    </g>
                    <g transform="matrix(0.966512,0.256621,-0.256621,0.966512,102.018,-308.563)">
                        <text x="1233.29px" y="236.604px" style="font-family:'DMSerifDisplay-Regular', 'DM Serif Display';font-size:60px;fill:rgb(211,167,83);">R</text>
                    </g>
                    <g transform="matrix(0.884226,0.467059,-0.467059,0.884226,263.578,-567.247)">
                        <text x="1275.99px" y="248.044px" style="font-family:'DMSerifDisplay-Regular', 'DM Serif Display';font-size:60px;fill:rgb(211,167,83);">M</text>
                    </g>
                    <g transform="matrix(0.775955,0.630788,-0.630788,0.775955,463.546,-768.905)">
                        <text x="1314.18px" y="268.094px" style="font-family:'DMSerifDisplay-Regular', 'DM Serif Display';font-size:60px;fill:rgb(211,167,83);">O</text>
                    </g>
                    <g transform="matrix(0.64439,0.764697,-0.764697,0.64439,699.494,-923.161)">
                        <text x="1342.32px" y="290.509px" style="font-family:'DMSerifDisplay-Regular', 'DM Serif Display';font-size:60px;fill:rgb(211,167,83);">R</text>
                    </g>
                    <g transform="matrix(0.493973,0.869477,-0.869477,0.493973,965.877,-1026.22)">
                        <text x="1364.59px" y="316.693px" style="font-family:'DMSerifDisplay-Regular', 'DM Serif Display';font-size:60px;fill:rgb(211,167,83);">E</text>
                    </g>
                </g>
                <g transform="matrix(1,0,0,1,189.235,-1.95298)">
                    <ellipse cx="1091.32" cy="314.088" rx="9.911" ry="9.898" style="fill:none;stroke:rgb(211,167,83);stroke-width:4.17px;"/>
                    <g transform="matrix(1.19846,0,0,1.21041,-26.7268,139.419)">
                        <ellipse cx="1091.32" cy="314.088" rx="9.911" ry="9.898" style="fill:none;stroke:rgb(211,167,83);stroke-width:3.46px;"/>
                    </g>
                    <g transform="matrix(1.19846,0,0,1.21041,-161.912,301.363)">
                        <ellipse cx="1091.32" cy="314.088" rx="9.911" ry="9.898" style="fill:none;stroke:rgb(211,167,83);stroke-width:3.46px;"/>
                    </g>
                    <g transform="matrix(1,0,0,1,2,2)">
                        <circle cx="1230.2" cy="348.248" r="8.504" style="fill:rgb(211,167,83);"/>
                    </g>
                    <g transform="matrix(1,0,0,1,-57.9376,212.355)">
                        <circle cx="1230.2" cy="348.248" r="8.504" style="fill:rgb(211,167,83);"/>
                    </g>
                    <path d="M1025.99,354.187L1023.56,372.61L1005.07,375.116L1023.56,372.61L1005.07,375.116L1023.47,377.678L1026.17,396.983L1025.99,396.983L1028.57,377.678L1047.32,375.116L1028.82,372.61L1025.99,354.187Z" style="fill:none;stroke:rgb(211,167,83);stroke-width:4.17px;"/>
                    <g transform="matrix(1,0,0,1,170.94,95.8985)">
                        <path d="M1025.99,344.187L1023.56,372.61L997.1,374.911L1023.18,378.528L1026.17,404.983L1028.57,377.678L1056.16,375.116L1028.82,372.61L1025.99,344.187Z" style="fill:none;stroke:rgb(211,167,83);stroke-width:4.17px;"/>
                    </g>
                    <g transform="matrix(1,0,0,1,49.9565,269.456)">
                        <path d="M1025.99,344.187L1023.56,372.61L997.1,374.911L1023.18,378.528L1026.17,404.983L1028.57,377.678L1056.16,375.116L1028.82,372.61L1025.99,344.187Z" style="fill:none;stroke:rgb(211,167,83);stroke-width:4.17px;"/>
                    </g>
                    <g transform="matrix(1,0,0,1,109.986,30.1094)">
                        <path d="M1026.29,335.979L1018.55,358.325L1004.99,351.687L1010.73,366.874L991.249,373.076L1009.94,379.43L1004.13,393.882L1017.65,389.192L1026.17,410.063L1034.43,388.523L1048.49,394.146L1042.69,382.673L1062.27,373.37L1042.29,363.53L1047.73,351.218L1034.43,357.743L1026.29,335.979Z" style="fill:none;stroke:rgb(211,167,83);stroke-width:4.17px;"/>
                    </g>
                    <path d="M1054.9,466.233C1050.22,500.354 1030.63,520.259 995.133,525C1030.76,529.45 1049.5,549.736 1054.26,583.144C1057.2,549.735 1076.56,530.091 1113.27,525C1077.99,520.012 1057.11,501.734 1054.9,466.233Z" style="fill:none;stroke:rgb(211,167,83);stroke-width:4.17px;"/>
                    <g transform="matrix(0.693634,0,0,0.67919,497.108,266.484)">
                        <path d="M1054.9,466.233C1050.22,500.354 1030.63,520.259 995.133,525C1030.76,529.45 1049.5,549.736 1054.26,583.144C1057.2,549.735 1076.56,530.091 1113.27,525C1077.99,520.012 1057.11,501.734 1054.9,466.233Z" style="fill:none;stroke:rgb(211,167,83);stroke-width:6.07px;"/>
                    </g>
                    <path d="M1063.55,868.906C1068.08,791.949 1004.59,822.553 997.856,686.684C997.831,686.194 998.194,685.77 998.682,685.718C1003.59,685.215 1009.83,701.93 1016.9,729.253C1013.29,709.596 1012.2,690.39 1016.61,672.171C1016.71,671.786 1017.03,671.506 1017.43,671.474C1017.83,671.441 1018.2,671.665 1018.35,672.03C1026.67,691.87 1030.62,717.241 1033.4,740.332C1031.82,718.898 1024.26,696.783 1028.84,682.66C1028.93,682.398 1029.14,682.191 1029.4,682.098C1029.66,682.005 1029.95,682.034 1030.19,682.179C1037.75,688.508 1040.74,719.652 1044.43,749.448C1042.28,733.558 1040.36,720.55 1039.87,707.723C1039.86,707.299 1040.13,706.919 1040.54,706.803C1040.95,706.686 1041.38,706.863 1041.6,707.23C1051.49,724.775 1057.91,745.983 1064.03,767.512" style="fill:none;stroke:rgb(211,167,83);stroke-width:4.17px;"/>
                    <path d="M1047.06,783.638C1047.06,783.638 1019.36,743.921 1012.8,734.507C1012.38,733.903 1012.29,733.125 1012.58,732.446C1012.86,731.767 1013.48,731.28 1014.2,731.158C1018.42,730.574 1024.39,734.08 1031.75,739.875C1045.83,750.96 1065.01,770.424 1086.75,785.132C1106.5,798.492 1114.58,839.741 1111.56,868.906" style="fill:none;stroke:rgb(211,167,83);stroke-width:4.17px;"/>
                    <g transform="matrix(1,0,0,1,1,1)">
                        <circle cx="1003.23" cy="778.481" r="1.732" style="fill:none;stroke:rgb(211,167,83);stroke-width:2.08px;"/>
                    </g>
                    <g transform="matrix(1.38789,0,0,1.38789,-393.353,-244.502)">
                        <circle cx="1003.23" cy="778.481" r="1.732" style="fill:none;stroke:rgb(211,167,83);stroke-width:1.5px;"/>
                    </g>
                    <g transform="matrix(1,0,0,1,41.0394,55.0612)">
                        <circle cx="1003.23" cy="778.481" r="1.732" style="fill:rgb(211,167,83);"/>
                    </g>
                    <path d="M1016.11,802.312L1016.11,815.676" style="fill:none;stroke:rgb(211,167,83);stroke-width:2.08px;"/>
                    <path d="M1022.94,808.994L1009.3,808.994" style="fill:none;stroke:rgb(211,167,83);stroke-width:2.08px;"/>
                    <path d="M1019.69,805.058L1012.21,812.839" style="fill:none;stroke:rgb(211,167,83);stroke-width:2.08px;"/>
                    <path d="M1012.21,805.058L1019.69,812.839" style="fill:none;stroke:rgb(211,167,83);stroke-width:2.08px;"/>
                    <path d="M1032.68,846.069C1032.12,852.344 1028.58,855.342 1023,856.098C1028.62,856.833 1031.81,860.238 1032.99,865.853C1033.56,859.821 1036.74,856.711 1042.54,856.524C1035.09,854.118 1032.68,850.405 1032.68,846.069Z" style="fill:none;stroke:rgb(211,167,83);stroke-width:2.08px;"/>
                    <g transform="matrix(-1,0,0,1,2285.52,0)">
                        <path d="M1063.55,868.906C1068.08,791.949 1004.59,822.553 997.856,686.684C997.831,686.194 998.194,685.77 998.682,685.718C1003.59,685.215 1009.83,701.93 1016.9,729.253C1013.29,709.596 1012.2,690.39 1016.61,672.171C1016.71,671.786 1017.03,671.506 1017.43,671.474C1017.83,671.441 1018.2,671.665 1018.35,672.03C1026.67,691.87 1030.62,717.241 1033.4,740.332C1031.82,718.898 1024.26,696.783 1028.84,682.66C1028.93,682.398 1029.14,682.191 1029.4,682.098C1029.66,682.005 1029.95,682.034 1030.19,682.179C1037.75,688.508 1040.74,719.652 1044.43,749.448C1042.28,733.558 1040.36,720.55 1039.87,707.723C1039.86,707.299 1040.13,706.919 1040.54,706.803C1040.95,706.686 1041.38,706.863 1041.6,707.23C1051.49,724.775 1057.91,745.983 1064.03,767.512" style="fill:none;stroke:rgb(211,167,83);stroke-width:4.17px;"/>
                    </g>
                    <g transform="matrix(-1,0,0,1,2285.52,0)">
                        <path d="M1047.06,783.638C1047.06,783.638 1019.36,743.921 1012.8,734.507C1012.38,733.903 1012.29,733.125 1012.58,732.446C1012.86,731.767 1013.48,731.28 1014.2,731.158C1018.42,730.574 1024.39,734.08 1031.75,739.875C1045.83,750.96 1065.01,770.424 1086.75,785.132C1106.5,798.492 1114.58,839.741 1111.56,868.906" style="fill:none;stroke:rgb(211,167,83);stroke-width:4.17px;"/>
                    </g>
                    <g transform="matrix(-1,0,0,1,2284.52,1)">
                        <circle cx="1003.23" cy="778.481" r="1.732" style="fill:none;stroke:rgb(211,167,83);stroke-width:2.08px;"/>
                    </g>
                    <g transform="matrix(-1.38789,0,0,1.38789,2678.87,-244.502)">
                        <circle cx="1003.23" cy="778.481" r="1.732" style="fill:none;stroke:rgb(211,167,83);stroke-width:1.5px;"/>
                    </g>
                    <g transform="matrix(-1,0,0,1,2244.48,55.0612)">
                        <circle cx="1003.23" cy="778.481" r="1.732" style="fill:rgb(211,167,83);"/>
                    </g>
                    <g transform="matrix(-1,0,0,1,2285.52,0)">
                        <path d="M1016.11,802.312L1016.11,815.676" style="fill:none;stroke:rgb(211,167,83);stroke-width:2.08px;"/>
                    </g>
                    <g transform="matrix(-1,0,0,1,2285.52,0)">
                        <path d="M1022.94,808.994L1009.3,808.994" style="fill:none;stroke:rgb(211,167,83);stroke-width:2.08px;"/>
                    </g>
                    <g transform="matrix(-1,0,0,1,2285.52,0)">
                        <path d="M1019.69,805.058L1012.21,812.839" style="fill:none;stroke:rgb(211,167,83);stroke-width:2.08px;"/>
                    </g>
                    <g transform="matrix(-1,0,0,1,2285.52,0)">
                        <path d="M1012.21,805.058L1019.69,812.839" style="fill:none;stroke:rgb(211,167,83);stroke-width:2.08px;"/>
                    </g>
                    <g transform="matrix(-1,0,0,1,2285.52,0)">
                        <path d="M1032.68,846.069C1032.12,852.344 1028.58,855.342 1023,856.098C1028.62,856.833 1031.81,860.238 1032.99,865.853C1033.56,859.821 1036.74,856.711 1042.54,856.524C1035.09,854.118 1032.68,850.405 1032.68,846.069Z" style="fill:none;stroke:rgb(211,167,83);stroke-width:2.08px;"/>
                    </g>
                </g>
            </g>
        </g>
    </g>
</svg>
